<svg xmlns="http://www.w3.org/2000/svg">
  <symbol id="tree" viewBox="0 0 448 512">
    <path d="M442.2 376.2l-55.5-64.4h5.3c9.3 0 17.8-5.4 21.8-13.9 3.9-8.5 2.6-18.5-3.5-25.6l-54.6-64.5H368c9.5 0 18.1-5.6 21.9-14.2 3.8-8.7 2.2-18.8-4.1-25.8L241.9 7.6c-9.1-10.1-26.6-10.1-35.7 0l-144 160.1c-6.3 7.1-7.9 17.2-4.1 25.8 3.9 8.7 12.5 14.2 21.9 14.2h12.2l-54.6 64.5c-6 7.1-7.4 17.1-3.5 25.6s12.4 13.9 21.8 13.9h5.3L5.8 376.2c-6.1 7.1-7.5 17.2-3.6 25.7s12.4 14 21.8 14h168v24.5l-30.3 48.4c-5.3 10.6 2.4 23.2 14.3 23.2h96c11.9 0 19.6-12.5 14.3-23.2L256 440.4v-24.5h168c9.4 0 17.9-5.5 21.8-14s2.5-18.6-3.6-25.7zm-365.8-8.3L166 263.8h-58.3l88-104.1h-61.9L224 59.5l90.1 100.2h-61.9l88 104.1H282l89.7 104.1z"></path>
  </symbol>
  <symbol id="at" viewBox="0 0 512 512">
    <path d="M504 232C504 95.751 394.053 8 256 8 118.94 8 8 118.919 8 256c0 137.059 110.919 248 248 248 52.926 0 104.681-17.079 147.096-48.321 5.501-4.052 6.423-11.924 2.095-17.211l-15.224-18.597c-4.055-4.954-11.249-5.803-16.428-2.041C339.547 442.517 298.238 456 256 456c-110.28 0-200-89.72-200-200S145.72 56 256 56c109.469 0 200 65.02 200 176 0 63.106-42.478 98.29-83.02 98.29-19.505 0-20.133-12.62-16.366-31.463l28.621-148.557c1.426-7.402-4.245-14.27-11.783-14.27h-39.175a12.005 12.005 0 0 0-11.784 9.735c-1.102 5.723-1.661 8.336-2.28 13.993-11.923-19.548-35.878-31.068-65.202-31.068C183.412 128.66 120 191.149 120 281.53c0 61.159 32.877 102.11 93.18 102.11 29.803 0 61.344-16.833 79.749-42.239 4.145 30.846 28.497 38.01 59.372 38.01C451.467 379.41 504 315.786 504 232zm-273.9 97.35c-28.472 0-45.47-19.458-45.47-52.05 0-57.514 39.56-93.41 74.61-93.41 30.12 0 45.471 21.532 45.471 51.58 0 46.864-33.177 93.88-74.611 93.88z"></path>
  </symbol>
</svg>
